{
    "asset" : {
        "generator" : "Khronos glTF Blender I/O v3.4.50",
        "version" : "2.0"
    },
    "scene" : 0,
    "scenes" : [
        {
            "name" : "Scene",
            "nodes" : [
                0,
                1,
                2,
                3,
                4,
                5,
                6,
                7,
                8
            ]
        }
    ],
    "nodes" : [
        {
            "mesh" : 0,
            "name" : "Cube",
            "scale" : [
                6.814147472381592,
                2.0576488971710205,
                2.8686881065368652
            ],
            "translation" : [
                -0.163598895072937,
                0.8891425132751465,
                -0.002737760543823242
            ]
        },
        {
            "mesh" : 1,
            "name" : "Sphere",
            "rotation" : [
                0,
                -0.017101485282182693,
                0,
                0.9998538494110107
            ],
            "scale" : [
                0.21401673555374146,
                0.43736886978149414,
                1.805533766746521
            ],
            "translation" : [
                5.860006809234619,
                2.842756748199463,
                0.08674240112304688
            ]
        },
        {
            "mesh" : 2,
            "name" : "Plane",
            "rotation" : [
                0.7071068286895752,
                0,
                0,
                0.7071068286895752
            ],
            "scale" : [
                -8.72158145904541,
                -13.379929542541504,
                -4.4272260665893555
            ],
            "translation" : [
                -0.5354335904121399,
                2.801604747772217,
                -3.0194599628448486
            ]
        },
        {
            "mesh" : 3,
            "name" : "Cylinder.004",
            "rotation" : [
                0.7071068286895752,
                0,
                0,
                0.7071068286895752
            ],
            "scale" : [
                0.3508029878139496,
                0.3508029878139496,
                0.3508029878139496
            ],
            "translation" : [
                -1.3784713745117188,
                4.332860469818115,
                -3.013098955154419
            ]
        },
        {
            "mesh" : 4,
            "name" : "Cylinder.005",
            "scale" : [
                0.3508029878139496,
                0.13256043195724487,
                0.3508029878139496
            ],
            "translation" : [
                -1.0540552139282227,
                4.337466716766357,
                -2.6583855152130127
            ]
        },
        {
            "mesh" : 5,
            "name" : "Cylinder.006",
            "rotation" : [
                0.7071068286895752,
                0,
                0,
                0.7071068286895752
            ],
            "scale" : [
                0.2884875535964966,
                0.6530004739761353,
                0.2884875535964966
            ],
            "translation" : [
                0.4580356180667877,
                4.324120998382568,
                -2.167206048965454
            ]
        },
        {
            "mesh" : 6,
            "name" : "Cylinder.007",
            "rotation" : [
                0.7062409520149231,
                0,
                0,
                0.7079715132713318
            ],
            "scale" : [
                0.3508029878139496,
                0.02477734349668026,
                0.18266870081424713
            ],
            "translation" : [
                0.4351573586463928,
                4.463180065155029,
                -1.5280182361602783
            ]
        },
        {
            "mesh" : 7,
            "name" : "Cube.001",
            "scale" : [
                0.03049803525209427,
                0.03049803525209427,
                0.03049803525209427
            ],
            "translation" : [
                0.6168265342712402,
                4.264795780181885,
                -2.4769656658172607
            ]
        },
        {
            "mesh" : 8,
            "name" : "Cube.002",
            "scale" : [
                0.03049803525209427,
                0.03049803525209427,
                0.03049803525209427
            ],
            "translation" : [
                0.26609140634536743,
                4.264795780181885,
                -2.4769656658172607
            ]
        }
    ],
    "materials" : [
        {
            "doubleSided" : true,
            "name" : "Material.001",
            "pbrMetallicRoughness" : {
                "baseColorFactor" : [
                    0.800000011920929,
                    0.800000011920929,
                    0.800000011920929,
                    1
                ],
                "metallicFactor" : 0.3870967924594879,
                "roughnessFactor" : 0.1827956885099411
            }
        },
        {
            "doubleSided" : true,
            "name" : "Material.003",
            "pbrMetallicRoughness" : {
                "baseColorFactor" : [
                    0.20536698400974274,
                    0.8000000715255737,
                    0.3931836783885956,
                    1
                ],
                "metallicFactor" : 0,
                "roughnessFactor" : 0.5
            }
        },
        {
            "doubleSided" : true,
            "name" : "Material.002",
            "pbrMetallicRoughness" : {
                "baseColorFactor" : [
                    0.13758406043052673,
                    0.13758406043052673,
                    0.13758406043052673,
                    1
                ],
                "metallicFactor" : 0.9462365508079529,
                "roughnessFactor" : 0.18817204236984253
            }
        }
    ],
    "meshes" : [
        {
            "name" : "Cube.002",
            "primitives" : [
                {
                    "attributes" : {
                        "POSITION" : 0,
                        "TEXCOORD_0" : 1,
                        "NORMAL" : 2
                    },
                    "indices" : 3,
                    "material" : 0
                },
                {
                    "attributes" : {
                        "POSITION" : 4,
                        "TEXCOORD_0" : 5,
                        "NORMAL" : 6
                    },
                    "indices" : 7,
                    "material" : 0
                }
            ]
        },
        {
            "name" : "Sphere.002",
            "primitives" : [
                {
                    "attributes" : {
                        "POSITION" : 8,
                        "TEXCOORD_0" : 9,
                        "NORMAL" : 10
                    },
                    "indices" : 11,
                    "material" : 0
                }
            ]
        },
        {
            "name" : "Plane",
            "primitives" : [
                {
                    "attributes" : {
                        "POSITION" : 12,
                        "TEXCOORD_0" : 13,
                        "NORMAL" : 14
                    },
                    "indices" : 15,
                    "material" : 1
                }
            ]
        },
        {
            "name" : "Cylinder.005",
            "primitives" : [
                {
                    "attributes" : {
                        "POSITION" : 16,
                        "TEXCOORD_0" : 17,
                        "NORMAL" : 18
                    },
                    "indices" : 19,
                    "material" : 2
                }
            ]
        },
        {
            "name" : "Cylinder.006",
            "primitives" : [
                {
                    "attributes" : {
                        "POSITION" : 20,
                        "TEXCOORD_0" : 21,
                        "NORMAL" : 22
                    },
                    "indices" : 23,
                    "material" : 2
                }
            ]
        },
        {
            "name" : "Cylinder.007",
            "primitives" : [
                {
                    "attributes" : {
                        "POSITION" : 24,
                        "TEXCOORD_0" : 25,
                        "NORMAL" : 26
                    },
                    "indices" : 19,
                    "material" : 2
                }
            ]
        },
        {
            "name" : "Cylinder.008",
            "primitives" : [
                {
                    "attributes" : {
                        "POSITION" : 27,
                        "TEXCOORD_0" : 28,
                        "NORMAL" : 29
                    },
                    "indices" : 19,
                    "material" : 2
                }
            ]
        },
        {
            "name" : "Cube.003",
            "primitives" : [
                {
                    "attributes" : {
                        "POSITION" : 30,
                        "TEXCOORD_0" : 31,
                        "NORMAL" : 32
                    },
                    "indices" : 33
                }
            ]
        },
        {
            "name" : "Cube.004",
            "primitives" : [
                {
                    "attributes" : {
                        "POSITION" : 34,
                        "TEXCOORD_0" : 35,
                        "NORMAL" : 36
                    },
                    "indices" : 33
                }
            ]
        }
    ],
    "accessors" : [
        {
            "bufferView" : 0,
            "componentType" : 5126,
            "count" : 180,
            "max" : [
                1.000000238418579,
                0.9962145090103149,
                1.0098068714141846
            ],
            "min" : [
                -1.000000238418579,
                -1.000000238418579,
                -1.009806752204895
            ],
            "type" : "VEC3"
        },
        {
            "bufferView" : 1,
            "componentType" : 5126,
            "count" : 180,
            "type" : "VEC2"
        },
        {
            "bufferView" : 2,
            "componentType" : 5126,
            "count" : 180,
            "type" : "VEC3"
        },
        {
            "bufferView" : 3,
            "componentType" : 5123,
            "count" : 462,
            "type" : "SCALAR"
        },
        {
            "bufferView" : 4,
            "componentType" : 5126,
            "count" : 846,
            "max" : [
                0.9085440039634705,
                0.9962145090103149,
                0.8577411770820618
            ],
            "min" : [
                -0.8816616535186768,
                -0.6878289580345154,
                -0.9382263422012329
            ],
            "type" : "VEC3"
        },
        {
            "bufferView" : 5,
            "componentType" : 5126,
            "count" : 846,
            "type" : "VEC2"
        },
        {
            "bufferView" : 6,
            "componentType" : 5126,
            "count" : 846,
            "type" : "VEC3"
        },
        {
            "bufferView" : 7,
            "componentType" : 5123,
            "count" : 3570,
            "type" : "SCALAR"
        },
        {
            "bufferView" : 8,
            "componentType" : 5126,
            "count" : 600,
            "max" : [
                3.2971205711364746,
                1,
                0.9982467293739319
            ],
            "min" : [
                -3.8597006797790527,
                -1,
                -0.9973459839820862
            ],
            "type" : "VEC3"
        },
        {
            "bufferView" : 9,
            "componentType" : 5126,
            "count" : 600,
            "type" : "VEC2"
        },
        {
            "bufferView" : 10,
            "componentType" : 5126,
            "count" : 600,
            "type" : "VEC3"
        },
        {
            "bufferView" : 11,
            "componentType" : 5123,
            "count" : 2880,
            "type" : "SCALAR"
        },
        {
            "bufferView" : 12,
            "componentType" : 5126,
            "count" : 4,
            "max" : [
                1,
                0,
                1
            ],
            "min" : [
                -1,
                0,
                -1
            ],
            "type" : "VEC3"
        },
        {
            "bufferView" : 13,
            "componentType" : 5126,
            "count" : 4,
            "type" : "VEC2"
        },
        {
            "bufferView" : 14,
            "componentType" : 5126,
            "count" : 4,
            "type" : "VEC3"
        },
        {
            "bufferView" : 15,
            "componentType" : 5123,
            "count" : 6,
            "type" : "SCALAR"
        },
        {
            "bufferView" : 16,
            "componentType" : 5126,
            "count" : 130,
            "max" : [
                7.155974388122559,
                1,
                1
            ],
            "min" : [
                -1,
                -1,
                -1
            ],
            "type" : "VEC3"
        },
        {
            "bufferView" : 17,
            "componentType" : 5126,
            "count" : 130,
            "type" : "VEC2"
        },
        {
            "bufferView" : 18,
            "componentType" : 5126,
            "count" : 130,
            "type" : "VEC3"
        },
        {
            "bufferView" : 19,
            "componentType" : 5123,
            "count" : 372,
            "type" : "SCALAR"
        },
        {
            "bufferView" : 20,
            "componentType" : 5126,
            "count" : 192,
            "max" : [
                1,
                1,
                6.869014263153076
            ],
            "min" : [
                -1,
                -1,
                -1
            ],
            "type" : "VEC3"
        },
        {
            "bufferView" : 21,
            "componentType" : 5126,
            "count" : 192,
            "type" : "VEC2"
        },
        {
            "bufferView" : 22,
            "componentType" : 5126,
            "count" : 192,
            "type" : "VEC3"
        },
        {
            "bufferView" : 23,
            "componentType" : 5123,
            "count" : 372,
            "type" : "SCALAR"
        },
        {
            "bufferView" : 24,
            "componentType" : 5126,
            "count" : 130,
            "max" : [
                1,
                1,
                1
            ],
            "min" : [
                -1,
                -1,
                -1
            ],
            "type" : "VEC3"
        },
        {
            "bufferView" : 25,
            "componentType" : 5126,
            "count" : 130,
            "type" : "VEC2"
        },
        {
            "bufferView" : 26,
            "componentType" : 5126,
            "count" : 130,
            "type" : "VEC3"
        },
        {
            "bufferView" : 27,
            "componentType" : 5126,
            "count" : 130,
            "max" : [
                1,
                1,
                6.869014263153076
            ],
            "min" : [
                -1,
                -1,
                -1
            ],
            "type" : "VEC3"
        },
        {
            "bufferView" : 28,
            "componentType" : 5126,
            "count" : 130,
            "type" : "VEC2"
        },
        {
            "bufferView" : 29,
            "componentType" : 5126,
            "count" : 130,
            "type" : "VEC3"
        },
        {
            "bufferView" : 30,
            "componentType" : 5126,
            "count" : 24,
            "max" : [
                1,
                1,
                1
            ],
            "min" : [
                -1,
                -1,
                -1
            ],
            "type" : "VEC3"
        },
        {
            "bufferView" : 31,
            "componentType" : 5126,
            "count" : 24,
            "type" : "VEC2"
        },
        {
            "bufferView" : 32,
            "componentType" : 5126,
            "count" : 24,
            "type" : "VEC3"
        },
        {
            "bufferView" : 33,
            "componentType" : 5123,
            "count" : 36,
            "type" : "SCALAR"
        },
        {
            "bufferView" : 34,
            "componentType" : 5126,
            "count" : 24,
            "max" : [
                1,
                1,
                1
            ],
            "min" : [
                -1,
                -1,
                -1
            ],
            "type" : "VEC3"
        },
        {
            "bufferView" : 35,
            "componentType" : 5126,
            "count" : 24,
            "type" : "VEC2"
        },
        {
            "bufferView" : 36,
            "componentType" : 5126,
            "count" : 24,
            "type" : "VEC3"
        }
    ],
    "bufferViews" : [
        {
            "buffer" : 0,
            "byteLength" : 2160,
            "byteOffset" : 0,
            "target" : 34962
        },
        {
            "buffer" : 0,
            "byteLength" : 1440,
            "byteOffset" : 2160,
            "target" : 34962
        },
        {
            "buffer" : 0,
            "byteLength" : 2160,
            "byteOffset" : 3600,
            "target" : 34962
        },
        {
            "buffer" : 0,
            "byteLength" : 924,
            "byteOffset" : 5760,
            "target" : 34963
        },
        {
            "buffer" : 0,
            "byteLength" : 10152,
            "byteOffset" : 6684,
            "target" : 34962
        },
        {
            "buffer" : 0,
            "byteLength" : 6768,
            "byteOffset" : 16836,
            "target" : 34962
        },
        {
            "buffer" : 0,
            "byteLength" : 10152,
            "byteOffset" : 23604,
            "target" : 34962
        },
        {
            "buffer" : 0,
            "byteLength" : 7140,
            "byteOffset" : 33756,
            "target" : 34963
        },
        {
            "buffer" : 0,
            "byteLength" : 7200,
            "byteOffset" : 40896,
            "target" : 34962
        },
        {
            "buffer" : 0,
            "byteLength" : 4800,
            "byteOffset" : 48096,
            "target" : 34962
        },
        {
            "buffer" : 0,
            "byteLength" : 7200,
            "byteOffset" : 52896,
            "target" : 34962
        },
        {
            "buffer" : 0,
            "byteLength" : 5760,
            "byteOffset" : 60096,
            "target" : 34963
        },
        {
            "buffer" : 0,
            "byteLength" : 48,
            "byteOffset" : 65856,
            "target" : 34962
        },
        {
            "buffer" : 0,
            "byteLength" : 32,
            "byteOffset" : 65904,
            "target" : 34962
        },
        {
            "buffer" : 0,
            "byteLength" : 48,
            "byteOffset" : 65936,
            "target" : 34962
        },
        {
            "buffer" : 0,
            "byteLength" : 12,
            "byteOffset" : 65984,
            "target" : 34963
        },
        {
            "buffer" : 0,
            "byteLength" : 1560,
            "byteOffset" : 65996,
            "target" : 34962
        },
        {
            "buffer" : 0,
            "byteLength" : 1040,
            "byteOffset" : 67556,
            "target" : 34962
        },
        {
            "buffer" : 0,
            "byteLength" : 1560,
            "byteOffset" : 68596,
            "target" : 34962
        },
        {
            "buffer" : 0,
            "byteLength" : 744,
            "byteOffset" : 70156,
            "target" : 34963
        },
        {
            "buffer" : 0,
            "byteLength" : 2304,
            "byteOffset" : 70900,
            "target" : 34962
        },
        {
            "buffer" : 0,
            "byteLength" : 1536,
            "byteOffset" : 73204,
            "target" : 34962
        },
        {
            "buffer" : 0,
            "byteLength" : 2304,
            "byteOffset" : 74740,
            "target" : 34962
        },
        {
            "buffer" : 0,
            "byteLength" : 744,
            "byteOffset" : 77044,
            "target" : 34963
        },
        {
            "buffer" : 0,
            "byteLength" : 1560,
            "byteOffset" : 77788,
            "target" : 34962
        },
        {
            "buffer" : 0,
            "byteLength" : 1040,
            "byteOffset" : 79348,
            "target" : 34962
        },
        {
            "buffer" : 0,
            "byteLength" : 1560,
            "byteOffset" : 80388,
            "target" : 34962
        },
        {
            "buffer" : 0,
            "byteLength" : 1560,
            "byteOffset" : 81948,
            "target" : 34962
        },
        {
            "buffer" : 0,
            "byteLength" : 1040,
            "byteOffset" : 83508,
            "target" : 34962
        },
        {
            "buffer" : 0,
            "byteLength" : 1560,
            "byteOffset" : 84548,
            "target" : 34962
        },
        {
            "buffer" : 0,
            "byteLength" : 288,
            "byteOffset" : 86108,
            "target" : 34962
        },
        {
            "buffer" : 0,
            "byteLength" : 192,
            "byteOffset" : 86396,
            "target" : 34962
        },
        {
            "buffer" : 0,
            "byteLength" : 288,
            "byteOffset" : 86588,
            "target" : 34962
        },
        {
            "buffer" : 0,
            "byteLength" : 72,
            "byteOffset" : 86876,
            "target" : 34963
        },
        {
            "buffer" : 0,
            "byteLength" : 288,
            "byteOffset" : 86948,
            "target" : 34962
        },
        {
            "buffer" : 0,
            "byteLength" : 192,
            "byteOffset" : 87236,
            "target" : 34962
        },
        {
            "buffer" : 0,
            "byteLength" : 288,
            "byteOffset" : 87428,
            "target" : 34962
        }
    ],
    "buffers" : [
        {
            "byteLength" : 87716,
            "uri" : "data:application/octet-stream;base64,"
        }
    ]
}
