{
    "asset" : {
        "generator" : "Khronos glTF Blender I/O v3.4.50",
        "version" : "2.0"
    },
    "extensionsUsed" : [
        "KHR_materials_specular",
        "KHR_materials_ior"
    ],
    "scene" : 0,
    "scenes" : [
        {
            "name" : "Scene",
            "nodes" : [
                5
            ]
        }
    ],
    "nodes" : [
        {
            "mesh" : 0,
            "name" : "Cube",
            "scale" : [
                89.84647369384766,
                103.54171752929688,
                89.84647369384766
            ],
            "translation" : [
                31.876007080078125,
                -86.27518463134766,
                1.1318421363830566
            ]
        },
        {
            "mesh" : 1,
            "name" : "Cylinder",
            "scale" : [
                261.46435546875,
                100.87554168701172,
                261.46435546875
            ],
            "translation" : [
                -292.9461669921875,
                -86.38118743896484,
                1.1318421363830566
            ]
        },
        {
            "mesh" : 2,
            "name" : "Cylinder.001",
            "scale" : [
                34.52097702026367,
                14.352901458740234,
                34.52097702026367
            ],
            "translation" : [
                -292.9461669921875,
                -182.1916046142578,
                1.1318379640579224
            ]
        },
        {
            "mesh" : 3,
            "name" : "Sphere",
            "scale" : [
                248.2098388671875,
                248.2098388671875,
                248.2098388671875
            ],
            "translation" : [
                -292.9461669921875,
                68.14341735839844,
                1.131848931312561
            ]
        },
        {
            "mesh" : 4,
            "name" : "Text",
            "rotation" : [
                0.5,
                -0.5000000596046448,
                0.5,
                0.4999999701976776
            ],
            "scale" : [
                27.385953903198242,
                27.385953903198242,
                27.385953903198242
            ],
            "translation" : [
                -612.1571655273438,
                -142.08453369140625,
                -43.28365707397461
            ]
        },
        {
            "children" : [
                0,
                1,
                2,
                3,
                4
            ],
            "mesh" : 5,
            "name" : "sink",
            "scale" : [
                0.004028848838061094,
                0.004028848838061094,
                0.004028848838061094
            ],
            "translation" : [
                1.1802358627319336,
                0,
                -0.004560036119073629
            ]
        }
    ],
    "materials" : [
        {
            "doubleSided" : true,
            "name" : "shiny white",
            "pbrMetallicRoughness" : {
                "baseColorFactor" : [
                    0.7991020679473877,
                    0.799102246761322,
                    0.7991029620170593,
                    1
                ],
                "metallicFactor" : 0,
                "roughnessFactor" : 0
            }
        },
        {
            "doubleSided" : true,
            "name" : "Material.004",
            "pbrMetallicRoughness" : {
                "roughnessFactor" : 0.05319148302078247
            }
        },
        {
            "doubleSided" : true,
            "name" : "Material.006",
            "pbrMetallicRoughness" : {
                "baseColorFactor" : [
                    0,
                    0,
                    0,
                    1
                ],
                "metallicFactor" : 0,
                "roughnessFactor" : 0.5
            }
        },
        {
            "doubleSided" : true,
            "extensions" : {
                "KHR_materials_specular" : {
                    "specularColorFactor" : [
                        2.371357614441398,
                        2.371357614441398,
                        2.371357614441398
                    ]
                },
                "KHR_materials_ior" : {
                    "ior" : 1.4500000476837158
                }
            },
            "name" : "Chrome",
            "pbrMetallicRoughness" : {
                "baseColorFactor" : [
                    0.9901872277259827,
                    1,
                    0.4850897789001465,
                    1
                ],
                "metallicFactor" : 0,
                "roughnessFactor" : 0
            }
        }
    ],
    "meshes" : [
        {
            "name" : "Cube.003",
            "primitives" : [
                {
                    "attributes" : {
                        "POSITION" : 0,
                        "TEXCOORD_0" : 1,
                        "NORMAL" : 2
                    },
                    "indices" : 3,
                    "material" : 0
                }
            ]
        },
        {
            "name" : "Mesh",
            "primitives" : [
                {
                    "attributes" : {
                        "POSITION" : 4,
                        "TEXCOORD_0" : 5,
                        "NORMAL" : 6
                    },
                    "indices" : 7,
                    "material" : 0
                }
            ]
        },
        {
            "name" : "Cylinder.001",
            "primitives" : [
                {
                    "attributes" : {
                        "POSITION" : 8,
                        "TEXCOORD_0" : 9,
                        "NORMAL" : 10
                    },
                    "indices" : 11,
                    "material" : 1
                }
            ]
        },
        {
            "name" : "Mesh",
            "primitives" : [
                {
                    "attributes" : {
                        "POSITION" : 12,
                        "TEXCOORD_0" : 13,
                        "NORMAL" : 14
                    },
                    "indices" : 15,
                    "material" : 0
                }
            ]
        },
        {
            "name" : "Text.001",
            "primitives" : [
                {
                    "attributes" : {
                        "POSITION" : 16,
                        "TEXCOORD_0" : 17,
                        "NORMAL" : 18
                    },
                    "indices" : 19,
                    "material" : 2
                }
            ]
        },
        {
            "name" : "Mesh",
            "primitives" : [
                {
                    "attributes" : {
                        "POSITION" : 20,
                        "TEXCOORD_0" : 21,
                        "NORMAL" : 22
                    },
                    "indices" : 23,
                    "material" : 3
                }
            ]
        }
    ],
    "accessors" : [
        {
            "bufferView" : 0,
            "componentType" : 5126,
            "count" : 58,
            "max" : [
                1,
                1,
                1
            ],
            "min" : [
                -1,
                -1,
                -1
            ],
            "type" : "VEC3"
        },
        {
            "bufferView" : 1,
            "componentType" : 5126,
            "count" : 58,
            "type" : "VEC2"
        },
        {
            "bufferView" : 2,
            "componentType" : 5126,
            "count" : 58,
            "type" : "VEC3"
        },
        {
            "bufferView" : 3,
            "componentType" : 5123,
            "count" : 222,
            "type" : "SCALAR"
        },
        {
            "bufferView" : 4,
            "componentType" : 5126,
            "count" : 2109,
            "max" : [
                0.9935951828956604,
                1.0000001192092896,
                0.9935951828956604
            ],
            "min" : [
                -0.9935951828956604,
                -1.0000003576278687,
                -0.9935952425003052
            ],
            "type" : "VEC3"
        },
        {
            "bufferView" : 5,
            "componentType" : 5126,
            "count" : 2109,
            "type" : "VEC2"
        },
        {
            "bufferView" : 6,
            "componentType" : 5126,
            "count" : 2109,
            "type" : "VEC3"
        },
        {
            "bufferView" : 7,
            "componentType" : 5123,
            "count" : 9984,
            "type" : "SCALAR"
        },
        {
            "bufferView" : 8,
            "componentType" : 5126,
            "count" : 320,
            "max" : [
                1,
                1.233723521232605,
                1
            ],
            "min" : [
                -1,
                -1,
                -1
            ],
            "type" : "VEC3"
        },
        {
            "bufferView" : 9,
            "componentType" : 5126,
            "count" : 320,
            "type" : "VEC2"
        },
        {
            "bufferView" : 10,
            "componentType" : 5126,
            "count" : 320,
            "type" : "VEC3"
        },
        {
            "bufferView" : 11,
            "componentType" : 5123,
            "count" : 1332,
            "type" : "SCALAR"
        },
        {
            "bufferView" : 12,
            "componentType" : 5126,
            "count" : 6918,
            "max" : [
                1.048356533050537,
                -0.20825839042663574,
                1.048356294631958
            ],
            "min" : [
                -1.048356056213379,
                -1.027671217918396,
                -1.0483564138412476
            ],
            "type" : "VEC3"
        },
        {
            "bufferView" : 13,
            "componentType" : 5126,
            "count" : 6918,
            "type" : "VEC2"
        },
        {
            "bufferView" : 14,
            "componentType" : 5126,
            "count" : 6918,
            "type" : "VEC3"
        },
        {
            "bufferView" : 15,
            "componentType" : 5123,
            "count" : 32928,
            "type" : "SCALAR"
        },
        {
            "bufferView" : 16,
            "componentType" : 5126,
            "count" : 2586,
            "max" : [
                3.9658901691436768,
                -2.100701332092285,
                0.010660805739462376
            ],
            "min" : [
                0.06209249049425125,
                -2.485426902770996,
                -0.6820001602172852
            ],
            "type" : "VEC3"
        },
        {
            "bufferView" : 17,
            "componentType" : 5126,
            "count" : 2586,
            "type" : "VEC2"
        },
        {
            "bufferView" : 18,
            "componentType" : 5126,
            "count" : 2586,
            "type" : "VEC3"
        },
        {
            "bufferView" : 19,
            "componentType" : 5123,
            "count" : 5052,
            "type" : "SCALAR"
        },
        {
            "bufferView" : 20,
            "componentType" : 5126,
            "count" : 15189,
            "max" : [
                23.049379348754883,
                153.14418029785156,
                23.652210235595703
            ],
            "min" : [
                -127.88923645019531,
                0.022045239806175232,
                -23.652210235595703
            ],
            "type" : "VEC3"
        },
        {
            "bufferView" : 21,
            "componentType" : 5126,
            "count" : 15189,
            "type" : "VEC2"
        },
        {
            "bufferView" : 22,
            "componentType" : 5126,
            "count" : 15189,
            "type" : "VEC3"
        },
        {
            "bufferView" : 23,
            "componentType" : 5123,
            "count" : 45414,
            "type" : "SCALAR"
        }
    ],
    "bufferViews" : [
        {
            "buffer" : 0,
            "byteLength" : 696,
            "byteOffset" : 0,
            "target" : 34962
        },
        {
            "buffer" : 0,
            "byteLength" : 464,
            "byteOffset" : 696,
            "target" : 34962
        },
        {
            "buffer" : 0,
            "byteLength" : 696,
            "byteOffset" : 1160,
            "target" : 34962
        },
        {
            "buffer" : 0,
            "byteLength" : 444,
            "byteOffset" : 1856,
            "target" : 34963
        },
        {
            "buffer" : 0,
            "byteLength" : 25308,
            "byteOffset" : 2300,
            "target" : 34962
        },
        {
            "buffer" : 0,
            "byteLength" : 16872,
            "byteOffset" : 27608,
            "target" : 34962
        },
        {
            "buffer" : 0,
            "byteLength" : 25308,
            "byteOffset" : 44480,
            "target" : 34962
        },
        {
            "buffer" : 0,
            "byteLength" : 19968,
            "byteOffset" : 69788,
            "target" : 34963
        },
        {
            "buffer" : 0,
            "byteLength" : 3840,
            "byteOffset" : 89756,
            "target" : 34962
        },
        {
            "buffer" : 0,
            "byteLength" : 2560,
            "byteOffset" : 93596,
            "target" : 34962
        },
        {
            "buffer" : 0,
            "byteLength" : 3840,
            "byteOffset" : 96156,
            "target" : 34962
        },
        {
            "buffer" : 0,
            "byteLength" : 2664,
            "byteOffset" : 99996,
            "target" : 34963
        },
        {
            "buffer" : 0,
            "byteLength" : 83016,
            "byteOffset" : 102660,
            "target" : 34962
        },
        {
            "buffer" : 0,
            "byteLength" : 55344,
            "byteOffset" : 185676,
            "target" : 34962
        },
        {
            "buffer" : 0,
            "byteLength" : 83016,
            "byteOffset" : 241020,
            "target" : 34962
        },
        {
            "buffer" : 0,
            "byteLength" : 65856,
            "byteOffset" : 324036,
            "target" : 34963
        },
        {
            "buffer" : 0,
            "byteLength" : 31032,
            "byteOffset" : 389892,
            "target" : 34962
        },
        {
            "buffer" : 0,
            "byteLength" : 20688,
            "byteOffset" : 420924,
            "target" : 34962
        },
        {
            "buffer" : 0,
            "byteLength" : 31032,
            "byteOffset" : 441612,
            "target" : 34962
        },
        {
            "buffer" : 0,
            "byteLength" : 10104,
            "byteOffset" : 472644,
            "target" : 34963
        },
        {
            "buffer" : 0,
            "byteLength" : 182268,
            "byteOffset" : 482748,
            "target" : 34962
        },
        {
            "buffer" : 0,
            "byteLength" : 121512,
            "byteOffset" : 665016,
            "target" : 34962
        },
        {
            "buffer" : 0,
            "byteLength" : 182268,
            "byteOffset" : 786528,
            "target" : 34962
        },
        {
            "buffer" : 0,
            "byteLength" : 90828,
            "byteOffset" : 968796,
            "target" : 34963
        }
    ],
    "buffers" : [
        {
            "byteLength" : 1059624,
            "uri" : "data:application/octet-stream;base64,"
        }
    ]
}
