{
    "asset" : {
        "generator" : "Khronos glTF Blender I/O v3.4.50",
        "version" : "2.0"
    },
    "scene" : 0,
    "scenes" : [
        {
            "name" : "Scene",
            "nodes" : [
                0,
                1,
                2
            ]
        }
    ],
    "nodes" : [
        {
            "mesh" : 0,
            "name" : "Cube.003",
            "scale" : [
                10.4423189163208,
                3.3697824478149414,
                8.334272384643555
            ],
            "translation" : [
                0.8320887684822083,
                13.465173721313477,
                -7.144480228424072
            ]
        },
        {
            "mesh" : 1,
            "name" : "Cube.004",
            "scale" : [
                1,
                3.8674237728118896,
                1
            ],
            "translation" : [
                0.21234554052352905,
                18.339487075805664,
                -16.24042510986328
            ]
        },
        {
            "mesh" : 2,
            "name" : "Cube.005",
            "scale" : [
                4.387701034545898,
                4.387701034545898,
                4.387701034545898
            ],
            "translation" : [
                0.7708718776702881,
                10.095409393310547,
                -13.58714485168457
            ]
        }
    ],
    "materials" : [
        {
            "doubleSided" : true,
            "name" : "Material.002",
            "pbrMetallicRoughness" : {
                "baseColorFactor" : [
                    0.13758406043052673,
                    0.13758406043052673,
                    0.13758406043052673,
                    1
                ],
                "metallicFactor" : 0.9462365508079529,
                "roughnessFactor" : 0.18817204236984253
            }
        },
        {
            "doubleSided" : true,
            "name" : "Material.001",
            "pbrMetallicRoughness" : {
                "baseColorFactor" : [
                    0.800000011920929,
                    0.800000011920929,
                    0.800000011920929,
                    1
                ],
                "metallicFactor" : 0.3870967924594879,
                "roughnessFactor" : 0.1827956885099411
            }
        },
        {
            "doubleSided" : true,
            "name" : "Material.003",
            "pbrMetallicRoughness" : {
                "baseColorFactor" : [
                    0.20536698400974274,
                    0.8000000715255737,
                    0.3931836783885956,
                    1
                ],
                "metallicFactor" : 0,
                "roughnessFactor" : 0.5
            }
        }
    ],
    "meshes" : [
        {
            "name" : "Cube.005",
            "primitives" : [
                {
                    "attributes" : {
                        "POSITION" : 0,
                        "TEXCOORD_0" : 1,
                        "NORMAL" : 2
                    },
                    "indices" : 3,
                    "material" : 0
                },
                {
                    "attributes" : {
                        "POSITION" : 4,
                        "TEXCOORD_0" : 5,
                        "NORMAL" : 6
                    },
                    "indices" : 7,
                    "material" : 0
                }
            ]
        },
        {
            "name" : "Cube.006",
            "primitives" : [
                {
                    "attributes" : {
                        "POSITION" : 8,
                        "TEXCOORD_0" : 9,
                        "NORMAL" : 10
                    },
                    "indices" : 11,
                    "material" : 1
                }
            ]
        },
        {
            "name" : "Cube.007",
            "primitives" : [
                {
                    "attributes" : {
                        "POSITION" : 12,
                        "TEXCOORD_0" : 13,
                        "NORMAL" : 14
                    },
                    "indices" : 15,
                    "material" : 2
                }
            ]
        }
    ],
    "accessors" : [
        {
            "bufferView" : 0,
            "componentType" : 5126,
            "count" : 282,
            "max" : [
                1,
                1.000000238418579,
                1.0000001192092896
            ],
            "min" : [
                -1,
                -0.9999996423721313,
                -1.3025712966918945
            ],
            "type" : "VEC3"
        },
        {
            "bufferView" : 1,
            "componentType" : 5126,
            "count" : 282,
            "type" : "VEC2"
        },
        {
            "bufferView" : 2,
            "componentType" : 5126,
            "count" : 282,
            "type" : "VEC3"
        },
        {
            "bufferView" : 3,
            "componentType" : 5123,
            "count" : 888,
            "type" : "SCALAR"
        },
        {
            "bufferView" : 4,
            "componentType" : 5126,
            "count" : 162,
            "max" : [
                0.7157070636749268,
                -0.29092633724212646,
                -0.4612746238708496
            ],
            "min" : [
                0.5241787433624268,
                -0.33412426710128784,
                -1.0038187503814697
            ],
            "type" : "VEC3"
        },
        {
            "bufferView" : 5,
            "componentType" : 5126,
            "count" : 162,
            "type" : "VEC2"
        },
        {
            "bufferView" : 6,
            "componentType" : 5126,
            "count" : 162,
            "type" : "VEC3"
        },
        {
            "bufferView" : 7,
            "componentType" : 5123,
            "count" : 288,
            "type" : "SCALAR"
        },
        {
            "bufferView" : 8,
            "componentType" : 5126,
            "count" : 12959,
            "max" : [
                0.9999998807907104,
                0.9998809695243835,
                6.989752769470215
            ],
            "min" : [
                -0.9999997615814209,
                -0.9503604173660278,
                -0.9796879887580872
            ],
            "type" : "VEC3"
        },
        {
            "bufferView" : 9,
            "componentType" : 5126,
            "count" : 12959,
            "type" : "VEC2"
        },
        {
            "bufferView" : 10,
            "componentType" : 5126,
            "count" : 12959,
            "type" : "VEC3"
        },
        {
            "bufferView" : 11,
            "componentType" : 5123,
            "count" : 66624,
            "type" : "SCALAR"
        },
        {
            "bufferView" : 12,
            "componentType" : 5126,
            "count" : 52,
            "max" : [
                1,
                0.26476067304611206,
                1
            ],
            "min" : [
                -1,
                -9.832098007202148,
                -1
            ],
            "type" : "VEC3"
        },
        {
            "bufferView" : 13,
            "componentType" : 5126,
            "count" : 52,
            "type" : "VEC2"
        },
        {
            "bufferView" : 14,
            "componentType" : 5126,
            "count" : 52,
            "type" : "VEC3"
        },
        {
            "bufferView" : 15,
            "componentType" : 5123,
            "count" : 84,
            "type" : "SCALAR"
        }
    ],
    "bufferViews" : [
        {
            "buffer" : 0,
            "byteLength" : 3384,
            "byteOffset" : 0,
            "target" : 34962
        },
        {
            "buffer" : 0,
            "byteLength" : 2256,
            "byteOffset" : 3384,
            "target" : 34962
        },
        {
            "buffer" : 0,
            "byteLength" : 3384,
            "byteOffset" : 5640,
            "target" : 34962
        },
        {
            "buffer" : 0,
            "byteLength" : 1776,
            "byteOffset" : 9024,
            "target" : 34963
        },
        {
            "buffer" : 0,
            "byteLength" : 1944,
            "byteOffset" : 10800,
            "target" : 34962
        },
        {
            "buffer" : 0,
            "byteLength" : 1296,
            "byteOffset" : 12744,
            "target" : 34962
        },
        {
            "buffer" : 0,
            "byteLength" : 1944,
            "byteOffset" : 14040,
            "target" : 34962
        },
        {
            "buffer" : 0,
            "byteLength" : 576,
            "byteOffset" : 15984,
            "target" : 34963
        },
        {
            "buffer" : 0,
            "byteLength" : 155508,
            "byteOffset" : 16560,
            "target" : 34962
        },
        {
            "buffer" : 0,
            "byteLength" : 103672,
            "byteOffset" : 172068,
            "target" : 34962
        },
        {
            "buffer" : 0,
            "byteLength" : 155508,
            "byteOffset" : 275740,
            "target" : 34962
        },
        {
            "buffer" : 0,
            "byteLength" : 133248,
            "byteOffset" : 431248,
            "target" : 34963
        },
        {
            "buffer" : 0,
            "byteLength" : 624,
            "byteOffset" : 564496,
            "target" : 34962
        },
        {
            "buffer" : 0,
            "byteLength" : 416,
            "byteOffset" : 565120,
            "target" : 34962
        },
        {
            "buffer" : 0,
            "byteLength" : 624,
            "byteOffset" : 565536,
            "target" : 34962
        },
        {
            "buffer" : 0,
            "byteLength" : 168,
            "byteOffset" : 566160,
            "target" : 34963
        }
    ],
    "buffers" : [
        {
            "byteLength" : 566328,
            "uri" : "data:application/octet-stream;base64,"
        }
    ]
}
