{
    "asset" : {
        "generator" : "Khronos glTF Blender I/O v3.4.50",
        "version" : "2.0"
    },
    "scene" : 0,
    "scenes" : [
        {
            "name" : "Scene",
            "nodes" : [
                3
            ]
        }
    ],
    "nodes" : [
        {
            "mesh" : 0,
            "name" : "Cylinder.010",
            "rotation" : [
                0.7067749500274658,
                -0.07552538812160492,
                0.047251950949430466,
                0.7018064856529236
            ],
            "scale" : [
                0.11124194413423538,
                0.1396421492099762,
                0.09823964536190033
            ],
            "translation" : [
                -0.6219170093536377,
                0.5227904319763184,
                1.3868108987808228
            ]
        },
        {
            "mesh" : 1,
            "name" : "Cylinder.011",
            "rotation" : [
                0,
                0,
                0.7300643920898438,
                0.6833783984184265
            ],
            "scale" : [
                0.8913751244544983,
                1.1219910383224487,
                1
            ],
            "translation" : [
                -0.9976716637611389,
                0.9302191734313965,
                -0.10924085974693298
            ]
        },
        {
            "mesh" : 2,
            "name" : "Text.002",
            "rotation" : [
                0.7071068286895752,
                0,
                0,
                0.7071068286895752
            ],
            "scale" : [
                0.18220660090446472,
                0.23200075328350067,
                0.16232383251190186
            ],
            "translation" : [
                0.022018171846866608,
                0.6583499908447266,
                1.6068412065505981
            ]
        },
        {
            "children" : [
                0,
                1,
                2
            ],
            "mesh" : 3,
            "name" : "Cylinder.008",
            "scale" : [
                1.5452961921691895,
                1.734576940536499,
                1.2136304378509521
            ],
            "translation" : [
                0,
                1.7688902616500854,
                0
            ]
        }
    ],
    "materials" : [
        {
            "doubleSided" : true,
            "name" : "Material.010",
            "pbrMetallicRoughness" : {
                "metallicFactor" : 0,
                "roughnessFactor" : 0
            }
        },
        {
            "doubleSided" : true,
            "name" : "Material.001",
            "pbrMetallicRoughness" : {
                "baseColorFactor" : [
                    0,
                    0,
                    0,
                    1
                ],
                "metallicFactor" : 0,
                "roughnessFactor" : 0.5
            }
        }
    ],
    "meshes" : [
        {
            "name" : "Cylinder.010",
            "primitives" : [
                {
                    "attributes" : {
                        "POSITION" : 0,
                        "TEXCOORD_0" : 1,
                        "NORMAL" : 2
                    },
                    "indices" : 3
                }
            ]
        },
        {
            "name" : "Cylinder.011",
            "primitives" : [
                {
                    "attributes" : {
                        "POSITION" : 4,
                        "TEXCOORD_0" : 5,
                        "NORMAL" : 6
                    },
                    "indices" : 7,
                    "material" : 0
                }
            ]
        },
        {
            "name" : "Text.003",
            "primitives" : [
                {
                    "attributes" : {
                        "POSITION" : 8,
                        "TEXCOORD_0" : 9,
                        "NORMAL" : 10
                    },
                    "indices" : 11,
                    "material" : 1
                }
            ]
        },
        {
            "name" : "Cylinder.004",
            "primitives" : [
                {
                    "attributes" : {
                        "POSITION" : 12,
                        "TEXCOORD_0" : 13,
                        "NORMAL" : 14
                    },
                    "indices" : 15,
                    "material" : 0
                }
            ]
        }
    ],
    "accessors" : [
        {
            "bufferView" : 0,
            "componentType" : 5126,
            "count" : 211,
            "max" : [
                1,
                1.0000001192092896,
                2.225534439086914
            ],
            "min" : [
                -1,
                -1,
                -2.0813541412353516
            ],
            "type" : "VEC3"
        },
        {
            "bufferView" : 1,
            "componentType" : 5126,
            "count" : 211,
            "type" : "VEC2"
        },
        {
            "bufferView" : 2,
            "componentType" : 5126,
            "count" : 211,
            "type" : "VEC3"
        },
        {
            "bufferView" : 3,
            "componentType" : 5123,
            "count" : 372,
            "type" : "SCALAR"
        },
        {
            "bufferView" : 4,
            "componentType" : 5126,
            "count" : 176,
            "max" : [
                3.2344560623168945,
                -1.6689300537109375e-05,
                1.5213351249694824
            ],
            "min" : [
                -0.008171319961547852,
                -0.12848412990570068,
                -1.3706486225128174
            ],
            "type" : "VEC3"
        },
        {
            "bufferView" : 5,
            "componentType" : 5126,
            "count" : 176,
            "type" : "VEC2"
        },
        {
            "bufferView" : 6,
            "componentType" : 5126,
            "count" : 176,
            "type" : "VEC3"
        },
        {
            "bufferView" : 7,
            "componentType" : 5123,
            "count" : 372,
            "type" : "SCALAR"
        },
        {
            "bufferView" : 8,
            "componentType" : 5126,
            "count" : 2586,
            "max" : [
                3.959407091140747,
                -0.31215837597846985,
                0.012163850478827953
            ],
            "min" : [
                0.07499998807907104,
                -0.8052034378051758,
                -0.6820001602172852
            ],
            "type" : "VEC3"
        },
        {
            "bufferView" : 9,
            "componentType" : 5126,
            "count" : 2586,
            "type" : "VEC2"
        },
        {
            "bufferView" : 10,
            "componentType" : 5126,
            "count" : 2586,
            "type" : "VEC3"
        },
        {
            "bufferView" : 11,
            "componentType" : 5123,
            "count" : 5052,
            "type" : "SCALAR"
        },
        {
            "bufferView" : 12,
            "componentType" : 5126,
            "count" : 1526,
            "max" : [
                2.373690128326416,
                1,
                1.5256541967391968
            ],
            "min" : [
                -1.228464961051941,
                -1,
                -1.5256541967391968
            ],
            "type" : "VEC3"
        },
        {
            "bufferView" : 13,
            "componentType" : 5126,
            "count" : 1526,
            "type" : "VEC2"
        },
        {
            "bufferView" : 14,
            "componentType" : 5126,
            "count" : 1526,
            "type" : "VEC3"
        },
        {
            "bufferView" : 15,
            "componentType" : 5123,
            "count" : 5538,
            "type" : "SCALAR"
        }
    ],
    "bufferViews" : [
        {
            "buffer" : 0,
            "byteLength" : 2532,
            "byteOffset" : 0,
            "target" : 34962
        },
        {
            "buffer" : 0,
            "byteLength" : 1688,
            "byteOffset" : 2532,
            "target" : 34962
        },
        {
            "buffer" : 0,
            "byteLength" : 2532,
            "byteOffset" : 4220,
            "target" : 34962
        },
        {
            "buffer" : 0,
            "byteLength" : 744,
            "byteOffset" : 6752,
            "target" : 34963
        },
        {
            "buffer" : 0,
            "byteLength" : 2112,
            "byteOffset" : 7496,
            "target" : 34962
        },
        {
            "buffer" : 0,
            "byteLength" : 1408,
            "byteOffset" : 9608,
            "target" : 34962
        },
        {
            "buffer" : 0,
            "byteLength" : 2112,
            "byteOffset" : 11016,
            "target" : 34962
        },
        {
            "buffer" : 0,
            "byteLength" : 744,
            "byteOffset" : 13128,
            "target" : 34963
        },
        {
            "buffer" : 0,
            "byteLength" : 31032,
            "byteOffset" : 13872,
            "target" : 34962
        },
        {
            "buffer" : 0,
            "byteLength" : 20688,
            "byteOffset" : 44904,
            "target" : 34962
        },
        {
            "buffer" : 0,
            "byteLength" : 31032,
            "byteOffset" : 65592,
            "target" : 34962
        },
        {
            "buffer" : 0,
            "byteLength" : 10104,
            "byteOffset" : 96624,
            "target" : 34963
        },
        {
            "buffer" : 0,
            "byteLength" : 18312,
            "byteOffset" : 106728,
            "target" : 34962
        },
        {
            "buffer" : 0,
            "byteLength" : 12208,
            "byteOffset" : 125040,
            "target" : 34962
        },
        {
            "buffer" : 0,
            "byteLength" : 18312,
            "byteOffset" : 137248,
            "target" : 34962
        },
        {
            "buffer" : 0,
            "byteLength" : 11076,
            "byteOffset" : 155560,
            "target" : 34963
        }
    ],
    "buffers" : [
        {
            "byteLength" : 166636,
            "uri" : "data:application/octet-stream;base64,"
        }
    ]
}
